PathFileType	4	(x/y/z)	S09_PSF_T11
DataRate	CameraRate	NumFrames	NumMarkers	Units	OrigDataRate	OrigDataStartFrame	OrigNumFrames
240	240	10	51	mm	240	230	458
Frame#	Time	Sternum			R.Acromium			L.Acromium			Top.Head			R.ASIS			L.ASIS			R.PSIS			L.PSIS			R.Great.Tro			L.Great.Tro			R.Iliac.Crest			L.Iliac.Crest			V.Sacral			R.Thigh.Upper.Post			R.Thigh.Lower.Ant			R.Thigh.Lower.Post			R.Thigh.Upper.Ant			R.Knee.Lat			R.Knee.Med			R.Shank.Upper.Post			R.Shank.Lower.Ant			R.Shank.Lower.Post			R.Shank.Upper.Ant			R.Ankle.Lat			R.Ankle.Med			R.Heel.Upper			R.Heel.Med			R.Heel.Lat			R.Toe.Lat			R.Toe.Med			R.Toe.Tip			L.Thigh.Upper.Post			L.Thigh.Lower.Ant			L.Thigh.Lower.Post			L.Thigh.Upper.Ant			L.Knee.Lat			L.Knee.Med			L.Shank.Upper.Post			L.Shank.Lower.Ant			L.Shank.Lower.Post			L.Shank.Upper.Ant			L.Ankle.Lat			L.Ankle.Med			L.Heel.Upper			L.Heel.Med			L.Heel.Lat			L.Toe.Lat			L.Toe.Med			L.Toe.Tip			Cervical.Spine			Back			
		X1	Y1	Z1	X2	Y2	Z2	X3	Y3	Z3	X4	Y4	Z4	X5	Y5	Z5	X6	Y6	Z6	X7	Y7	Z7	X8	Y8	Z8	X9	Y9	Z9	X10	Y10	Z10	X11	Y11	Z11	X12	Y12	Z12	X13	Y13	Z13	X14	Y14	Z14	X15	Y15	Z15	X16	Y16	Z16	X17	Y17	Z17	X18	Y18	Z18	X19	Y19	Z19	X20	Y20	Z20	X21	Y21	Z21	X22	Y22	Z22	X23	Y23	Z23	X24	Y24	Z24	X25	Y25	Z25	X26	Y26	Z26	X27	Y27	Z27	X28	Y28	Z28	X29	Y29	Z29	X30	Y30	Z30	X31	Y31	Z31	X32	Y32	Z32	X33	Y33	Z33	X34	Y34	Z34	X35	Y35	Z35	X36	Y36	Z36	X37	Y37	Z37	X38	Y38	Z38	X39	Y39	Z39	X40	Y40	Z40	X41	Y41	Z41	X42	Y42	Z42	X43	Y43	Z43	X44	Y44	Z44	X45	Y45	Z45	X46	Y46	Z46	X47	Y47	Z47	X48	Y48	Z48	X49	Y49	Z49	X50	Y50	Z50	X51	Y51	Z51	

230	0.95417	-357.11	1202.7	336.82	-487.3	1444.8	495.6	-514.59	1437.7	185.15	-491.2	1749.3	330.06	-394.1	1036.2	457.96	-410.55	1034.8	213.04	-620.9	1046.3	390.86	-619.98	1042.5	302.12	-470.51	946.1	533.86	-472.37	939.91	146.27	-483.56	1111.7	505.6	-526.09	1119.2	183.52	-637.78	1008	345.15	-498.66	694.2	496.38	-440.79	589.35	446.84	-515.94	606.05	467.82	-430.15	674.6	479.23	-476.48	517.36	439.25	-493.55	516.27	319.54	-574.33	351.25	443.13	-515.14	284.86	424.48	-586.34	276.85	428.8	-509.49	357.09	440.37	-582.45	91.76	399.41	-561.93	105.75	306.51	-647.89	79.328	349.34	-638.78	47.383	320.63	-644.73	49.142	385.43	-483.64	40.349	434.51	-438.46	44.107	325.18	-390.02	59.462	370.89	-428.98	678.89	178.25	-319.1	619.36	159.45	-380.1	602.08	188.87	-365.88	694.38	145.82	-315.97	542.09	169.14	-270.56	553.65	299.9	-389.65	426.9	167.22	-345.87	325.29	164.16	-404.5	351.45	171.92	-331.2	401.56	160.29	-426.77	151.1	186.32	-387.85	139.64	272.64	-490.16	124.57	254.05	-475.51	95.216	282.15	-500.9	99.461	225.69	-349.68	62.781	132.87	-289.75	51.82	228.16	-250.99	64.155	160.98	-580.7	1489.8	357.44	-622.38	1222.2	350.24
231	0.95833	-352.08	1202.6	336.97	-482.05	1444.7	495.57	-509.55	1437.5	185.15	-485.83	1749.1	330	-389.64	1035.8	458.11	-405.32	1034.7	213.14	-616.2	1046.3	390.2	-614.94	1042.4	301.42	-466.5	945.77	533.71	-466.78	939.87	146	-479.09	1111.3	505.51	-520.71	1119.2	183.38	-632.94	1008	344.42	-496.12	694.19	496.22	-438.79	588.99	446.87	-513.83	606.11	467.74	-427.7	674.24	479.21	-474.94	517.13	439.31	-491.8	516.07	319.54	-573.42	351.42	443.04	-514.44	284.88	424.52	-585.65	277.06	428.7	-508.57	357.07	440.38	-582.28	91.904	399.29	-561.68	105.8	306.45	-647.75	79.454	349.22	-638.55	47.459	320.59	-644.64	49.336	385.36	-483.61	40.297	434.47	-438.39	44.007	325.17	-389.9	59.247	370.93	-423.96	678.66	178.55	-313.82	618.96	160.32	-375.09	601.78	189.49	-360.72	694.06	146.45	-310.61	541.61	170.06	-265.74	553.61	300.87	-381.64	424.44	167.91	-335.1	324.11	164.32	-394.39	348.6	172.28	-322.55	400.74	160.78	-410.76	147.51	185.73	-371.57	136.85	272	-473.4	119.22	253.42	-457.98	90.183	281.47	-483.45	93.799	225	-331.42	61.357	132.01	-271.09	51.936	227.26	-232.76	65.321	160	-575.53	1489.6	357.49	-617.32	1221.9	350.27
232	0.9625	-347.03	1202.4	337.12	-476.81	1444.5	495.54	-504.5	1437.1	185.14	-480.47	1748.8	329.94	-385.16	1035.2	458.23	-400.05	1034.5	213.21	-611.48	1046.3	389.53	-609.87	1042.3	300.72	-462.49	945.42	533.55	-461.2	939.77	145.75	-474.58	1110.9	505.4	-515.32	1119.2	183.22	-628.09	1007.9	343.68	-493.56	694.16	496.07	-436.76	588.61	446.89	-511.7	606.15	467.62	-425.25	673.86	479.18	-473.38	516.89	439.35	-490.01	515.86	319.51	-572.49	351.6	442.92	-513.72	284.88	424.55	-584.94	277.27	428.58	-507.63	357.04	440.37	-582.1	92.053	399.16	-561.4	105.83	306.38	-647.6	79.581	349.09	-638.33	47.532	320.54	-644.54	49.532	385.29	-483.57	40.245	434.43	-438.31	43.899	325.17	-389.78	59.028	370.97	-419.05	678.34	178.88	-308.7	618.43	161.21	-370.23	601.37	190.14	-355.68	693.63	147.1	-305.42	541.02	170.98	-261.07	553.43	301.87	-373.67	421.93	168.61	-324.38	322.96	164.5	-384.29	345.76	172.66	-313.98	399.91	161.28	-394.67	144.07	185.18	-355.2	134.25	271.39	-456.45	114.06	252.86	-440.3	85.402	280.86	-465.84	88.354	224.39	-313.17	60.118	131.2	-252.45	52.288	226.4	-214.6	66.674	159.04	-570.36	1489.4	357.52	-612.25	1221.7	350.29
233	0.96667	-341.94	1202.1	337.25	-471.57	1444.3	495.51	-499.44	1436.8	185.12	-475.11	1748.5	329.86	-380.66	1034.7	458.32	-394.76	1034.2	213.25	-606.72	1046.2	388.86	-604.76	1042.1	300.02	-458.47	945.05	533.39	-455.63	939.59	145.5	-470.02	1110.4	505.27	-509.92	1119.1	183.05	-623.22	1007.9	342.94	-490.98	694.11	495.91	-434.71	588.22	446.9	-509.55	606.17	467.49	-422.79	673.47	479.13	-471.78	516.65	439.37	-488.19	515.64	319.46	-571.53	351.78	442.79	-512.97	284.88	424.58	-584.21	277.48	428.44	-506.67	357.01	440.34	-581.92	92.206	399.02	-561.09	105.86	306.28	-647.45	79.711	348.96	-638.11	47.602	320.49	-644.45	49.73	385.21	-483.54	40.195	434.39	-438.23	43.782	325.16	-389.65	58.806	371	-414.26	677.93	179.25	-303.74	617.78	162.11	-365.51	600.86	190.82	-350.76	693.07	147.78	-300.38	540.32	171.89	-256.56	553.11	302.89	-365.76	419.37	169.32	-313.73	321.87	164.7	-374.22	342.92	173.07	-305.51	399.06	161.78	-378.51	140.81	184.67	-338.76	131.88	270.81	-439.34	109.13	252.38	-422.48	80.889	280.34	-448.1	83.143	223.87	-294.93	59.083	130.46	-233.83	52.893	225.58	-196.52	68.232	158.11	-565.19	1489.1	357.54	-607.16	1221.4	350.28
234	0.97083	-336.82	1201.8	337.38	-466.33	1444	495.47	-494.36	1436.4	185.09	-469.75	1748.1	329.78	-376.12	1034.1	458.38	-389.43	1033.9	213.26	-601.93	1046.2	388.2	-599.62	1042	299.33	-454.45	944.66	533.24	-450.08	939.34	145.27	-465.43	1110	505.13	-504.5	1118.9	182.85	-618.33	1007.8	342.2	-488.38	694.04	495.74	-432.63	587.82	446.91	-507.38	606.17	467.33	-420.33	673.06	479.07	-470.15	516.4	439.37	-486.33	515.42	319.38	-570.55	351.96	442.63	-512.19	284.86	424.59	-583.46	277.7	428.28	-505.67	356.97	440.29	-581.73	92.364	398.87	-560.74	105.86	306.16	-647.3	79.843	348.81	-637.9	47.669	320.42	-644.35	49.929	385.12	-483.5	40.149	434.34	-438.14	43.656	325.16	-389.51	58.579	371.03	-409.58	677.42	179.64	-298.93	617	163.02	-360.94	600.25	191.5	-345.97	692.4	148.47	-295.48	539.52	172.8	-252.19	552.63	303.93	-357.89	416.78	170.03	-303.15	320.83	164.92	-364.17	340.12	173.49	-297.13	398.21	162.29	-362.31	137.73	184.22	-322.28	129.74	270.29	-422.1	104.43	251.99	-404.53	76.659	279.9	-430.24	78.183	223.44	-276.71	58.272	129.78	-215.27	53.766	224.81	-178.54	70.017	157.22	-560.01	1488.8	357.55	-602.06	1221	350.26
235	0.975	-331.68	1201.5	337.49	-461.09	1443.7	495.43	-489.26	1435.9	185.06	-464.4	1747.7	329.7	-371.55	1033.4	458.42	-384.07	1033.6	213.26	-597.11	1046.1	387.53	-594.44	1041.8	298.64	-450.42	944.26	533.08	-444.55	939.01	145.04	-460.79	1109.5	504.97	-499.08	1118.7	182.63	-613.41	1007.8	341.46	-485.77	693.95	495.56	-430.53	587.41	446.91	-505.18	606.16	467.14	-417.87	672.64	478.99	-468.48	516.14	439.36	-484.43	515.19	319.28	-569.54	352.14	442.44	-511.39	284.84	424.59	-582.69	277.92	428.1	-504.65	356.92	440.23	-581.53	92.529	398.71	-560.36	105.85	306.02	-647.15	79.976	348.66	-637.7	47.733	320.35	-644.26	50.13	385.03	-483.47	40.108	434.29	-438.04	43.521	325.16	-389.38	58.348	371.06	-405.02	676.82	180.06	-294.28	616.11	163.92	-356.51	599.54	192.2	-341.31	691.61	149.17	-290.72	538.62	173.69	-247.98	552.01	305	-350.07	414.17	170.74	-292.64	319.85	165.15	-354.14	337.35	173.93	-288.84	397.36	162.8	-346.07	134.87	183.83	-305.78	127.85	269.82	-404.73	99.984	251.68	-386.49	72.722	279.54	-412.28	73.487	223.1	-258.54	57.701	129.17	-196.78	54.92	224.11	-160.67	72.046	156.38	-554.82	1488.5	357.55	-596.95	1220.6	350.23
236	0.97917	-326.51	1201.1	337.59	-455.85	1443.3	495.38	-484.15	1435.4	185.01	-459.05	1747.3	329.61	-366.95	1032.7	458.44	-378.68	1033.1	213.23	-592.25	1046.1	386.86	-589.24	1041.6	297.96	-446.37	943.85	532.92	-439.04	938.61	144.83	-456.13	1109	504.79	-493.64	1118.4	182.4	-608.46	1007.7	340.73	-483.14	693.85	495.37	-428.39	586.98	446.91	-502.95	606.13	466.93	-415.41	672.21	478.9	-466.78	515.88	439.33	-482.47	514.95	319.16	-568.51	352.33	442.24	-510.56	284.8	424.57	-581.9	278.15	427.9	-503.59	356.87	440.15	-581.33	92.7	398.55	-559.95	105.83	305.86	-647	80.111	348.49	-637.52	47.794	320.28	-644.16	50.333	384.93	-483.45	40.075	434.25	-437.94	43.376	325.17	-389.25	58.112	371.09	-400.56	676.12	180.5	-289.78	615.1	164.82	-352.22	598.72	192.91	-336.76	690.71	149.87	-286.09	537.62	174.56	-243.92	551.25	306.09	-342.29	411.55	171.44	-282.2	318.94	165.41	-344.15	334.64	174.38	-280.64	396.52	163.31	-329.83	132.23	183.5	-289.28	126.22	269.42	-387.29	95.795	251.45	-368.38	69.09	279.28	-394.26	69.067	222.86	-240.42	57.388	128.65	-178.39	56.37	223.47	-142.93	74.339	155.61	-549.63	1488.1	357.54	-591.81	1220.1	350.17
237	0.98333	-321.31	1200.6	337.67	-450.61	1442.9	495.32	-479.02	1434.9	184.96	-453.7	1746.8	329.51	-362.32	1032	458.44	-373.25	1032.6	213.19	-587.36	1046	386.19	-584.01	1041.5	297.29	-442.31	943.42	532.77	-433.55	938.13	144.64	-451.43	1108.5	504.6	-488.2	1118.1	182.14	-603.49	1007.6	339.99	-480.5	693.74	495.17	-426.22	586.55	446.91	-500.71	606.09	466.69	-412.94	671.76	478.8	-465.05	515.61	439.29	-480.47	514.71	319.02	-567.44	352.52	442.02	-509.69	284.74	424.55	-581.09	278.38	427.69	-502.5	356.81	440.07	-581.12	92.878	398.38	-559.51	105.79	305.69	-646.84	80.247	348.32	-637.34	47.852	320.19	-644.06	50.537	384.82	-483.42	40.051	434.2	-437.82	43.224	325.17	-389.11	57.872	371.11	-396.21	675.33	180.94	-285.42	613.98	165.69	-348.06	597.82	193.62	-332.32	689.7	150.55	-281.58	536.54	175.41	-240	550.35	307.19	-334.54	408.93	172.13	-271.85	318.1	165.69	-334.19	331.98	174.84	-272.52	395.7	163.82	-313.6	129.81	183.23	-272.82	124.88	269.09	-369.79	91.879	251.32	-350.24	65.768	279.1	-376.18	64.932	222.71	-222.38	57.348	128.22	-160.12	58.127	222.93	-125.33	76.912	154.92	-544.42	1487.6	357.51	-586.66	1219.6	350.1
238	0.9875	-316.08	1200.1	337.74	-445.37	1442.5	495.26	-473.86	1434.3	184.89	-448.36	1746.3	329.4	-357.65	1031.3	458.42	-367.79	1032.1	213.13	-582.44	1045.9	385.52	-578.76	1041.2	296.64	-438.24	942.97	532.62	-428.07	937.58	144.46	-446.69	1107.9	504.4	-482.75	1117.7	181.86	-598.49	1007.5	339.26	-477.84	693.61	494.96	-424.03	586.11	446.92	-498.43	606.04	466.43	-410.47	671.3	478.7	-463.28	515.33	439.24	-478.41	514.46	318.86	-566.34	352.72	441.79	-508.8	284.68	424.51	-580.25	278.62	427.45	-501.38	356.75	439.98	-580.9	93.064	398.19	-559.03	105.74	305.49	-646.69	80.383	348.14	-637.18	47.908	320.1	-643.97	50.743	384.7	-483.4	40.037	434.17	-437.71	43.066	325.18	-388.98	57.629	371.13	-391.96	674.46	181.39	-281.19	612.75	166.54	-344.02	596.82	194.32	-327.99	688.58	151.22	-277.18	535.38	176.24	-236.22	549.32	308.3	-326.83	406.32	172.8	-261.58	317.35	166	-324.28	329.4	175.31	-264.49	394.89	164.33	-297.41	127.64	183.05	-256.42	123.81	268.84	-352.27	88.242	251.26	-332.09	62.76	279.01	-358.09	61.09	222.64	-204.42	57.594	127.89	-142.01	60.198	222.48	-107.9	79.776	154.34	-539.22	1487.2	357.47	-581.48	1219.1	350.01
239	0.99167	-310.83	1199.6	337.79	-440.12	1442	495.19	-468.69	1433.7	184.82	-443.02	1745.8	329.29	-352.96	1030.5	458.39	-362.29	1031.5	213.07	-577.48	1045.8	384.84	-573.48	1041	295.99	-434.14	942.52	532.48	-422.62	936.96	144.3	-441.92	1107.3	504.19	-477.29	1117.2	181.56	-593.46	1007.4	338.52	-475.16	693.47	494.74	-421.79	585.65	446.94	-496.13	605.98	466.15	-407.98	670.83	478.6	-461.47	515.05	439.18	-476.28	514.19	318.68	-565.21	352.92	441.53	-507.88	284.6	424.46	-579.38	278.87	427.2	-500.21	356.68	439.89	-580.68	93.258	398	-558.52	105.68	305.28	-646.54	80.519	347.95	-637.03	47.962	320	-643.87	50.948	384.57	-483.38	40.032	434.13	-437.58	42.902	325.2	-388.85	57.381	371.15	-387.8	673.5	181.84	-277.1	611.41	167.36	-340.09	595.74	195.02	-323.76	687.36	151.87	-272.87	534.13	177.03	-232.57	548.16	309.42	-319.16	403.72	173.45	-251.41	316.68	166.33	-314.4	326.9	175.78	-256.53	394.11	164.84	-281.27	125.71	182.94	-240.13	123.02	268.68	-334.78	84.892	251.29	-313.98	60.067	279	-340.01	57.545	222.66	-186.56	58.135	127.66	-124.07	62.588	222.14	-90.658	82.94	153.87	-534	1486.7	357.42	-576.29	1218.5	349.9
